<?xml version="1.0"?>
<svg xmlns="http://www.w3.org/2000/svg" height="512px" viewBox="0 0 128 128" width="512px" class=""><g><path d="m111.413 108.521-23.7-20.612.018-.018a4.971 4.971 0 0 0 0-7.03l-1.013-1.012a4.937 4.937 0 0 0 -1.327-.925 33.385 33.385 0 0 0 -4.3-36.257v-25.333a8.046 8.046 0 0 0 -8.043-8.034h-47.2a8.044 8.044 0 0 0 -8.035 8.036v95.929a8.044 8.044 0 0 0 8.035 8.035h47.2a8.046 8.046 0 0 0 8.036-8.035v-15.107l18.927 21.765a8.112 8.112 0 0 0 5.817 2.774h.278a8.083 8.083 0 0 0 5.307-14.181z" fill="#e6e7e8" data-original="#E6E7E8" class=""/><rect fill="#6dc9f7" height="110" rx="7.035" width="61.275" x="14.809" y="6.298" data-original="#6DC9F7" class="" style="fill:#FFFFFF" data-old_color="#6dc9f7"/><path d="m14.809 16.728h61.275v84.657h-61.275z" fill="#d4fbff" data-original="#D4FBFF" class="active-path" style="fill:#FFFFFF" data-old_color="#d4fbff"/><path d="m14.809 16.728h61.275v3h-61.275z" fill="#fff" data-original="#FFF" class=""/><rect fill="#0089ef" height="2.269" rx="1.026" width="19.128" x="35.882" y="10.484" data-original="#0089EF" class="" style="fill:#FFFFFF" data-old_color="#0089ef"/><path d="m59.549 10.374a1.245 1.245 0 1 0 1.245 1.245 1.244 1.244 0 0 0 -1.245-1.245z" fill="#0089ef" data-original="#0089EF" class="" style="fill:#FFFFFF" data-old_color="#0089ef"/><rect fill="#0089ef" height="5.512" rx="2.492" width="16.534" x="37.179" y="105.451" data-original="#0089EF" class="" style="fill:#FFFFFF" data-old_color="#0089ef"/><path d="m106.757 105.275-24.514-21.316-6.793 6.794 21.315 24.514a7.083 7.083 0 1 0 9.992-9.992z" fill="#fa759e" data-original="#FA759E" class="" style="fill:#FFFFFF" data-old_color="#fa759e"/><path d="m83.02 77.568-1.013-1.013a3.956 3.956 0 0 0 -2.023-1.082 32.335 32.335 0 0 1 -13.021 13.021 3.956 3.956 0 0 0 1.082 2.023l1.013 1.013a3.971 3.971 0 0 0 5.615 0l8.347-8.347a3.971 3.971 0 0 0 0-5.615z" fill="#ffd7e5" data-original="#FFD7E5" class="" style="fill:#FFFFFF" data-old_color="#ffd7e5"/><circle cx="51.569" cy="60.079" fill="#0089ef" r="32.316" data-original="#0089EF" class="" style="fill:#FFFFFF" data-old_color="#0089ef"/><circle cx="51.569" cy="60.079" fill="#d4fbff" r="26" data-original="#D4FBFF" class="active-path" style="fill:#FFFFFF" data-old_color="#d4fbff"/><path d="m51.569 52.162a9.851 9.851 0 0 1 4.2.945 5.194 5.194 0 1 0 -8.4 0 9.848 9.848 0 0 1 4.2-.945z" fill="#0089ef" data-original="#0089EF" class="" style="fill:#FFFFFF" data-old_color="#0089ef"/><circle cx="51.569" cy="62.066" fill="#6dc9f7" r="9.904" transform="matrix(.973 -.23 .23 .973 -12.88 13.508)" data-original="#6DC9F7" class="" style="fill:#FFFFFF" data-old_color="#6dc9f7"/><g fill="#3a2c60"><path d="m14.809 94.712a1 1 0 0 0 1-1v-8.08a1 1 0 0 0 -2 0v8.08a1 1 0 0 0 1 1z" data-original="#3A2C60" class="" data-old_color="#3A2C60" style="fill:#000000"/><path d="m107.413 104.521-23.7-20.612.018-.018a4.971 4.971 0 0 0 0-7.03l-1.013-1.013a4.759 4.759 0 0 0 -1.328-.923 33.383 33.383 0 0 0 -4.3-36.258v-25.333a8.045 8.045 0 0 0 -8.042-8.034h-47.2a8.044 8.044 0 0 0 -8.035 8.036v67.464a1 1 0 0 0 2 0v-63.072h59.271v18.752a33.308 33.308 0 1 0 -8.664 53.43 4.8 4.8 0 0 0 .919 1.314l1.013 1.013a4.928 4.928 0 0 0 6.732.244v7.9h-59.275v-1.832a1 1 0 0 0 -2 0v10.714a8.044 8.044 0 0 0 8.035 8.035h47.2a8.045 8.045 0 0 0 8.036-8.035v-15.105l18.927 21.765a8.108 8.108 0 0 0 5.816 2.774h.279a8.082 8.082 0 0 0 5.307-14.181zm-91.6-88.793v-2.394a6.042 6.042 0 0 1 6.031-6.034h47.2a6.043 6.043 0 0 1 6.036 6.036v2.394zm13.616 66.5a31.317 31.317 0 1 1 22.14 9.172 31.113 31.113 0 0 1 -22.144-9.177zm40.341 8.6-1.017-1.018a2.9 2.9 0 0 1 -.583-.84 33.342 33.342 0 0 0 12.282-12.292 2.88 2.88 0 0 1 .848.584l1.013 1.013a2.972 2.972 0 0 1 0 4.2l-8.346 8.346a3.042 3.042 0 0 1 -4.201.002zm-.722 24.472h-47.2a6.041 6.041 0 0 1 -6.035-6.035v-6.878h59.271v6.878a6.042 6.042 0 0 1 -6.036 6.035zm37.362-.378a6.08 6.08 0 0 1 -8.889-.31l-20.705-23.812 5.475-5.476 23.81 20.7a6.082 6.082 0 0 1 .309 8.89z" data-original="#3A2C60" class="" data-old_color="#3A2C60" style="fill:#000000"/><path d="m70.66 40.987a27 27 0 1 0 7.909 19.092 26.821 26.821 0 0 0 -7.909-19.092zm-1.414 36.769a25 25 0 1 1 7.323-17.677 24.837 24.837 0 0 1 -7.323 17.677z" data-original="#3A2C60" class="" data-old_color="#3A2C60" style="fill:#000000"/><path d="m66.721 49.827a1 1 0 0 0 -1 1v1.739a3.086 3.086 0 0 1 -3.083 3.083h-2.273a10.972 10.972 0 0 0 -3.205-2.927 6.149 6.149 0 0 0 -.822-6.592l1.332-1.683a1 1 0 1 0 -1.57-1.241l-1.276 1.612a6.139 6.139 0 0 0 -6.515 0l-1.275-1.612a1 1 0 1 0 -1.568 1.24l1.334 1.684a6.155 6.155 0 0 0 -.822 6.592 10.981 10.981 0 0 0 -3.2 2.927h-2.278a3.086 3.086 0 0 1 -3.083-3.083v-1.739a1 1 0 0 0 -2 0v1.739a5.088 5.088 0 0 0 5.083 5.083h1.109a10.814 10.814 0 0 0 -.887 3.305h-4.3a1 1 0 0 0 0 2h4.288a10.846 10.846 0 0 0 .8 3.305h-1.01a5.089 5.089 0 0 0 -5.083 5.083v1.74a1 1 0 0 0 2 0v-1.74a3.086 3.086 0 0 1 3.083-3.083h2.107a10.882 10.882 0 0 0 17.926 0h2.106a3.086 3.086 0 0 1 3.083 3.083v1.74a1 1 0 0 0 2 0v-1.74a5.09 5.09 0 0 0 -5.083-5.083h-1.008a10.818 10.818 0 0 0 .8-3.3h4.293a1 1 0 0 0 0-2h-4.308a10.758 10.758 0 0 0 -.887-3.3h1.109a5.089 5.089 0 0 0 5.083-5.083v-1.749a1 1 0 0 0 -1-1zm-19.346.25a4.194 4.194 0 1 1 8.388 0 4.057 4.057 0 0 1 -.423 1.771 10.708 10.708 0 0 0 -7.542 0 4.043 4.043 0 0 1 -.423-1.771zm5.193 20.833v-11.261a1 1 0 0 0 -2 0v11.261a8.905 8.905 0 1 1 2 0z" data-original="#3A2C60" class="" data-old_color="#3A2C60" style="fill:#000000"/></g></g> </svg>
